<?xml version="1.0" encoding="UTF-8"?>
<svg width="243px" height="31px" viewBox="0 0 243 31" version="1.1" xmlns="http://www.w3.org/2000/svg" xmlns:xlink="http://www.w3.org/1999/xlink">
    <!-- Generator: Sketch 51.2 (57519) - http://www.bohemiancoding.com/sketch -->
    <title>Group</title>
    <desc>Created with Sketch.</desc>
    <defs></defs>
    <g id="Page-1" stroke="none" stroke-width="1" fill="none" fill-rule="evenodd">
        <g id="Group" transform="translate(1.000000, -1.000000)" fill-rule="nonzero">
            <path d="M0.5,17.5 L93.5,17.5" id="Line" stroke="#2C3E50" stroke-width="3" stroke-linecap="square"></path>
            <path d="M147.5,16.25 L240.5,16.25" id="Line-Copy" stroke="#2C3E50" stroke-width="3" stroke-linecap="square"></path>
            <path d="M120.511558,26.9134089 L112.311651,31.5033653 C111.82973,31.7731244 111.220372,31.6011326 110.950613,31.119211 C110.834382,30.9115664 110.796008,30.6692791 110.842384,30.4358801 L112.673781,21.2189308 C112.74156,20.877817 112.627243,20.5259863 112.371907,20.2898589 L105.472689,13.9096586 C105.067211,13.5346841 105.042483,12.9020021 105.417457,12.496524 C105.579022,12.3218165 105.797593,12.2104492 106.033899,12.1824313 L115.365672,11.0759997 C115.711035,11.0350514 116.01032,10.817608 116.155988,10.5018017 L120.091943,1.96866472 C120.323265,1.46715859 120.91734,1.2481314 121.418846,1.47945379 C121.634929,1.57912322 121.808388,1.75258177 121.908057,1.96866472 L125.844012,10.5018017 C125.98968,10.817608 126.288965,11.0350514 126.634328,11.0759997 L135.966101,12.1824313 C136.514544,12.247458 136.90643,12.7447737 136.841404,13.2932169 C136.813386,13.5295236 136.702019,13.7480941 136.527311,13.9096586 L129.628093,20.2898589 C129.372757,20.5259863 129.25844,20.877817 129.326219,21.2189308 L131.157616,30.4358801 C131.26525,30.9775749 130.913375,31.5039601 130.37168,31.6115943 C130.138281,31.6579704 129.895993,31.6195959 129.688349,31.5033653 L121.488442,26.9134089 C121.184968,26.7435374 120.815032,26.7435374 120.511558,26.9134089 Z" id="Star" fill="#2C3E50"></path>
        </g>
    </g>
</svg>